<svg xmlns="http://www.w3.org/2000/svg" viewBox="0 0 64 64" role="img" aria-labelledby="faviconTitle">
  <title id="faviconTitle">3D DBML Viewer favicon</title>
  <defs>
    <linearGradient id="bg" x1="10" y1="6" x2="54" y2="58" gradientUnits="userSpaceOnUse">
      <stop offset="0" stop-color="#1C95D3" />
      <stop offset="1" stop-color="#0B4A69" />
    </linearGradient>
    <linearGradient id="cardFront" x1="20" y1="17" x2="45" y2="46" gradientUnits="userSpaceOnUse">
      <stop offset="0" stop-color="#7FDBFF" />
      <stop offset="1" stop-color="#1C95D3" />
    </linearGradient>
    <filter id="shadow" x="-20%" y="-20%" width="140%" height="140%">
      <feDropShadow dx="0" dy="2" stdDeviation="2" flood-color="#08253A" flood-opacity="0.28" />
    </filter>
  </defs>

  <rect width="64" height="64" rx="14" fill="url(#bg)" />
  <path d="M14 16 32 9l18 7-18 7-18-7Z" fill="#D9F3FF" fill-opacity=".26" />

  <g filter="url(#shadow)" stroke-linejoin="round" stroke-linecap="round">
    <path d="M12 24h22v12H12z" fill="#D9F3FF" fill-opacity=".14" stroke="#D9F3FF" stroke-opacity=".5" stroke-width="1.5" />
    <path d="M30 18h22v12H30z" fill="#D9F3FF" fill-opacity=".18" stroke="#D9F3FF" stroke-opacity=".6" stroke-width="1.5" />
    <path d="M18 30h28v16H18z" fill="url(#cardFront)" stroke="#FFFFFF" stroke-width="2" />

    <path d="M18 36h28" stroke="#FFFFFF" stroke-width="2" />
    <path d="M23 40.5h8M23 44h12M34.5 40.5h6M38 44h3" stroke="#FFFFFF" stroke-width="2" />

    <path d="M23 30v-6h18v6" fill="none" stroke="#9BE7FF" stroke-width="2.5" />
    <circle cx="23" cy="24" r="2.4" fill="#FFFFFF" />
    <circle cx="41" cy="24" r="2.4" fill="#FFFFFF" />
  </g>
</svg>
